<?xml version="1.0" encoding="iso-8859-1"?>
<!-- Uploaded to: SVG Repo, www.svgrepo.com, Generator: SVG Repo Mixer Tools -->
<svg height="800px" width="800px" version="1.1" id="Layer_1" xmlns="http://www.w3.org/2000/svg" xmlns:xlink="http://www.w3.org/1999/xlink" 
	 viewBox="0 0 512 512" xml:space="preserve">
<path style="fill:#1C74BB;" d="M132.147,492.095H25.987c-9.772,0-17.693-7.921-17.693-17.693V244.389
	c0-9.772,7.921-17.693,17.693-17.693h106.16c9.772,0,17.693,7.921,17.693,17.693v230.013
	C149.84,484.174,141.919,492.095,132.147,492.095z"/>
<path style="fill:#035FA1;" d="M43.68,474.402V244.389c0-9.772,7.922-17.693,17.693-17.693H25.987
	c-9.771,0-17.693,7.921-17.693,17.693v230.013c0,9.772,7.922,17.693,17.693,17.693h35.387
	C51.603,492.095,43.68,484.174,43.68,474.402z"/>
<path style="fill:#E5E5E5;" d="M459.473,324.009c19.543,0,35.387-15.843,35.387-35.387c0-18.802-14.667-34.172-33.182-35.311
	l0.065-0.696c2.132,0.401,4.328,0.62,6.577,0.62c19.543,0,35.387-15.843,35.387-35.387s-15.843-35.387-35.387-35.387h-132.7V93.996
	c0-97.313-88.467-70.773-88.467-70.773v115.006l-97.313,123.853v176.933l53.08,26.54h238.86c19.543,0,35.387-15.843,35.387-35.387
	c0-17.295-12.411-31.683-28.809-34.766l0.065-0.696c0.73,0.045,1.463,0.075,2.205,0.075c19.543,0,35.387-15.843,35.387-35.387
	c0-18.054-13.523-32.938-30.99-35.105l0.053-0.563C456.518,323.906,457.983,324.009,459.473,324.009z"/>
<g>
	<path style="fill:#CCCCCC;" d="M441.78,439.015H202.92l-53.08-26.54v26.54l53.08,26.54h238.86
		c19.543,0,35.387-15.843,35.387-35.387c0-4.695-0.921-9.173-2.581-13.271C469.334,429.864,456.629,439.015,441.78,439.015z"/>
	<path style="fill:#CCCCCC;" d="M450.626,377.089h-53.08v17.693h53.08c19.543,0,35.387-15.843,35.387-35.387
		c0-3.054-0.387-6.019-1.115-8.847C480.969,365.811,467.115,377.089,450.626,377.089z"/>
	<path style="fill:#CCCCCC;" d="M459.473,306.315h-61.927v17.693h61.927c19.543,0,35.387-15.843,35.387-35.387
		c0-3.054-0.387-6.019-1.115-8.847C489.816,295.038,475.962,306.315,459.473,306.315z"/>
	<path style="fill:#CCCCCC;" d="M468.32,235.542h-70.773v17.693h70.773c19.543,0,35.387-15.843,35.387-35.387
		c0-3.054-0.387-6.019-1.115-8.847C498.663,224.265,484.809,235.542,468.32,235.542z"/>
</g>
<circle style="fill:#E5E5E5;" cx="96.76" cy="439.015" r="17.693"/>
<path d="M503.153,288.622c0-12.709-5.48-24.237-14.253-32.253c13.736-7.368,23.1-21.872,23.1-38.521
	c0-24.085-19.595-43.68-43.68-43.68H343.914V93.996c0-32.341-9.31-55.665-27.67-69.327c-29.196-21.722-69.76-9.905-71.473-9.39
	c-3.508,1.052-5.911,4.281-5.911,7.943V135.36l-81.323,103.501c-2.541-11.683-12.957-20.46-25.39-20.46H25.987
	C11.658,218.402,0,230.059,0,244.389v26.54c0,4.58,3.712,8.294,8.294,8.294s8.294-3.713,8.294-8.294v-26.54
	c0-5.183,4.217-9.4,9.4-9.4h106.16c5.183,0,9.4,4.217,9.4,9.4v230.013c0,5.183-4.217,9.4-9.4,9.4H25.987c-5.183,0-9.4-4.217-9.4-9.4
	V306.315c0-4.58-3.712-8.294-8.294-8.294S0,301.735,0,306.315v168.086c0,14.329,11.658,25.987,25.987,25.987h106.16
	c14.329,0,25.987-11.658,25.987-25.987v-21.967l41.077,20.539c1.152,0.576,2.422,0.876,3.709,0.876h159.24
	c4.581,0,8.294-3.713,8.294-8.294s-3.712-8.294-8.294-8.294H204.879l-46.745-23.372V264.951l95.541-121.597
	c1.148-1.461,1.773-3.266,1.773-5.124V29.812c10.761-2.035,33.993-4.409,50.894,8.164c13.925,10.361,20.985,29.208,20.985,56.019
	v88.467c0,4.58,3.712,8.294,8.294,8.294h132.7c14.94,0,27.093,12.154,27.093,27.093s-12.153,27.093-27.093,27.093
	c-1.663,0-70.773,0-70.773,0c-4.581,0-8.294,3.713-8.294,8.294c0,4.58,3.712,8.294,8.294,8.294c0,0,63.33,0.041,63.622,0.06
	c14.242,0.876,25.398,12.751,25.398,27.033c0,14.939-12.153,27.093-27.093,27.093c-1.087,0-61.927,0-61.927,0
	c-4.581,0-8.294,3.713-8.294,8.294s3.712,8.294,8.294,8.294h55.366c0.355,0.093,0.717,0.173,1.09,0.219
	c13.521,1.678,23.717,13.23,23.717,26.874c0,14.939-12.153,27.093-27.093,27.093c-0.571,0-53.08,0-53.08,0
	c-4.581,0-8.294,3.713-8.294,8.294s3.712,8.294,8.294,8.294h47.671c0.51,0.208,1.045,0.372,1.606,0.477
	c12.776,2.403,22.049,13.596,22.049,26.616c0,14.939-12.153,27.093-27.093,27.093h-44.233c-4.581,0-8.294,3.713-8.294,8.294
	s3.712,8.294,8.294,8.294h44.233c24.085,0,43.68-19.595,43.68-43.68c0-12.637-5.422-24.209-14.233-32.263
	c13.726-7.371,23.08-21.869,23.08-38.511c0-12.67-5.454-24.219-14.246-32.256C493.795,319.77,503.153,305.269,503.153,288.622z"/>
<path d="M122.747,439.015c0-14.329-11.658-25.987-25.987-25.987s-25.987,11.658-25.987,25.987s11.658,25.987,25.987,25.987
	S122.747,453.345,122.747,439.015z M87.361,439.015c0-5.183,4.217-9.4,9.4-9.4s9.4,4.217,9.4,9.4s-4.217,9.4-9.4,9.4
	S87.361,444.198,87.361,439.015z"/>
</svg>